<?xml version="1.0" encoding="UTF-8"?>
<svg width="200px" height="200px" viewBox="0 0 200 200" version="1.1" style="background-color: white"
    xmlns="http://www.w3.org/2000/svg"
    xmlns:xlink="http://www.w3.org/1999/xlink">
    <!-- Generator: Sketch 52.2 (67145) - http://www.bohemiancoding.com/sketch -->
    <title>✱ / Logo / New / Small</title>
    <desc>Created with Sketch.</desc>
    <g id="✱-/-Logo-/-New-/-Small" stroke="none" stroke-width="1" fill="none" fill-rule="evenodd">
        <g id="Revised-Logo-Copy" transform="translate(42.000000, 18.000000)">
            <polygon id="TADA" stroke="#000000" fill="#000000" points="20.1186246 157 20.1186246 102.451133 0 102.451133 0 90.4654819 54.4386313 90.4654819 54.4386313 102.451133 34.3200067 102.451133 34.3200067 157"></polygon>
            <g id="bars" fill-rule="nonzero">
                <path d="M81.4943499,101.667997 L129.691253,101.667997 C133.098893,101.667997 135.861331,98.9055591 135.861331,95.4979192 L135.861331,95.4979192 C135.861331,92.0902793 133.098893,89.3278414 129.691253,89.3278414 L81.4943499,89.3278414 C78.08671,89.3278414 75.324272,92.0902793 75.324272,95.4979192 L75.324272,95.4979192 C75.324272,98.9055591 78.08671,101.667997 81.4943499,101.667997 Z" id="Fill-10" fill="#42CDF9"></path>
                <path d="M57.0627084,60.5675779 L57.0627084,60.5675779 C54.6542015,58.210333 54.6126455,54.3469278 56.9698904,51.9384209 C57.0013642,51.9062628 57.0331926,51.8744537 57.06537,51.8429996 L97.3739396,12.4404696 C99.8535991,10.016547 103.815509,10.0177557 106.293689,12.443191 L106.293689,12.443191 C108.702196,14.8004361 108.743752,18.6638413 106.386507,21.0723481 C106.355033,21.1045062 106.323205,21.1363153 106.291027,21.1677693 L65.9824582,60.5702991 C63.5027987,62.9942219 59.5408885,62.9930132 57.0627084,60.5675779 Z" id="Fill-12" fill="#F5F350" transform="translate(81.678199, 36.505384) rotate(-10.000000) translate(-81.678199, -36.505384) "></path>
                <path d="M16.0472493,56.5274268 L6.10541244,9.17850472 C5.39648654,5.8021792 7.55884116,2.49042859 10.9351667,1.78150268 C10.9518601,1.77799757 10.9685677,1.77456086 10.9852893,1.77119262 L10.9852893,1.77119262 C14.4032789,1.08270318 17.7370653,3.27897448 18.4535311,6.69120945 L28.3953682,54.0401316 C29.1042941,57.4164571 26.9419395,60.7282078 23.5656139,61.4371337 C23.5489205,61.4406388 23.5322128,61.4440755 23.5154913,61.4474438 L23.5154913,61.4474438 C20.0975016,62.1359332 16.7637152,59.9396619 16.0472493,56.5274268 Z" id="Fill-7" fill="#E842E1" transform="translate(17.250390, 31.609318) rotate(-10.000000) translate(-17.250390, -31.609318) "></path>
            </g>
        </g>
    </g>
</svg>